<svg xmlns="http://www.w3.org/2000/svg" xmlns:xlink="http://www.w3.org/1999/xlink" width="7559" zoomAndPan="magnify" viewBox="0 0 5669.25 2268.00001" height="3023" preserveAspectRatio="xMidYMid meet" version="1.0"><defs><g/><clipPath id="8ed5261a57"><path d="M 0.875 263.675781 L 1640.402344 263.675781 L 1640.402344 1903 L 0.875 1903 Z M 0.875 263.675781 " clip-rule="nonzero"/></clipPath></defs><g clip-path="url(#8ed5261a57)"><path fill="#eba0ac" d="M 820.503906 263.675781 C 368.066406 263.675781 0.875 630.871094 0.875 1083.304688 C 0.875 1535.738281 368.066406 1902.933594 820.503906 1902.933594 C 1272.9375 1902.933594 1640.132812 1535.738281 1640.132812 1083.304688 C 1640.132812 630.871094 1272.9375 263.675781 820.503906 263.675781 Z M 487.734375 942.328125 C 456.589844 940.6875 397.574219 939.050781 364.789062 934.132812 C 338.5625 932.492188 320.53125 914.460938 320.53125 888.234375 C 320.53125 863.644531 333.644531 850.53125 353.316406 847.25 C 332.003906 845.613281 317.25 829.21875 320.53125 802.992188 C 323.808594 775.125 340.199219 766.929688 361.511719 765.289062 C 350.035156 760.371094 343.480469 742.339844 348.398438 724.308594 C 359.871094 684.964844 394.296875 689.882812 394.296875 689.882812 C 386.101562 683.324219 382.820312 673.488281 387.738281 658.738281 C 392.65625 642.34375 400.851562 632.507812 415.605469 629.230469 C 441.835938 622.671875 476.257812 617.753906 558.222656 629.230469 C 600.84375 635.789062 661.496094 647.261719 707.394531 666.933594 C 735.261719 675.128906 777.882812 676.769531 828.699219 676.769531 C 840.175781 676.769531 850.011719 702.996094 850.011719 784.960938 C 850.011719 866.921875 840.175781 893.152344 828.699219 893.152344 C 781.160156 893.152344 746.738281 899.707031 735.261719 901.347656 C 669.691406 914.460938 677.886719 929.214844 622.152344 966.917969 C 559.859375 1009.539062 564.777344 1011.175781 545.109375 1039.042969 C 527.074219 1065.273438 515.601562 1065.273438 499.207031 1102.976562 C 487.734375 1127.566406 481.175781 1143.957031 463.144531 1140.679688 C 451.671875 1139.039062 435.277344 1119.367188 435.277344 1098.058594 C 435.277344 1057.078125 446.753906 1022.652344 474.621094 991.507812 C 487.734375 970.195312 494.289062 965.277344 487.734375 942.328125 Z M 446.753906 1416.074219 L 1151.632812 711.191406 L 1192.613281 752.175781 L 487.734375 1457.054688 Z M 1320.476562 1363.617188 C 1317.199219 1391.484375 1300.804688 1399.679688 1279.496094 1401.320312 C 1290.96875 1406.238281 1297.527344 1424.269531 1292.609375 1442.300781 C 1281.132812 1481.644531 1246.710938 1476.726562 1246.710938 1476.726562 C 1254.90625 1483.285156 1258.183594 1493.117188 1253.265625 1507.871094 C 1248.347656 1524.265625 1240.152344 1534.101562 1225.398438 1537.378906 C 1199.171875 1543.9375 1164.746094 1548.855469 1082.785156 1537.378906 C 1040.164062 1530.820312 979.511719 1519.347656 933.613281 1499.675781 C 905.746094 1491.480469 863.125 1489.839844 812.308594 1489.839844 C 800.832031 1489.839844 790.996094 1463.613281 790.996094 1381.648438 C 790.996094 1299.6875 800.832031 1273.457031 812.308594 1273.457031 C 859.84375 1273.457031 894.269531 1266.902344 905.746094 1265.261719 C 971.316406 1252.148438 963.117188 1237.394531 1018.855469 1199.691406 C 1081.144531 1157.070312 1076.226562 1155.433594 1095.898438 1127.566406 C 1113.929688 1101.335938 1125.40625 1101.335938 1141.796875 1063.632812 C 1153.273438 1039.042969 1159.828125 1022.652344 1177.863281 1025.929688 C 1189.335938 1027.570312 1205.730469 1047.242188 1205.730469 1068.550781 C 1205.730469 1109.53125 1194.253906 1143.957031 1166.386719 1175.101562 C 1153.273438 1196.414062 1148.355469 1201.332031 1153.273438 1222.640625 C 1184.417969 1224.28125 1243.433594 1225.921875 1276.21875 1230.835938 C 1302.445312 1232.476562 1320.476562 1250.507812 1320.476562 1276.738281 C 1320.476562 1301.324219 1307.363281 1314.441406 1287.691406 1317.71875 C 1307.363281 1319.359375 1323.753906 1337.390625 1320.476562 1363.617188 Z M 1320.476562 1363.617188 " fill-opacity="1" fill-rule="nonzero"/></g><g fill="#eba0ac" fill-opacity="1"><g transform="translate(1914.865366, 1385.231366)"><g><path d="M 73.777344 224.933594 L 468.761719 -395.882812 L 398.582031 -395.882812 L 233.03125 -130.460938 L 158.355469 -395.882812 L 86.375 -395.882812 L 187.144531 -64.78125 L -2.699219 224.933594 Z M 73.777344 224.933594 "/></g></g></g><g fill="#eba0ac" fill-opacity="1"><g transform="translate(2297.22584, 1385.231366)"><g><path d="M 430.074219 -199.742188 C 422.875 -161.054688 401.28125 -126.863281 367.992188 -98.972656 C 334.703125 -71.078125 297.8125 -56.683594 258.226562 -56.683594 C 218.636719 -56.683594 187.144531 -71.078125 164.652344 -98.972656 C 142.160156 -126.863281 134.960938 -161.054688 142.160156 -199.742188 C 150.257812 -239.332031 170.949219 -273.519531 204.242188 -301.410156 C 237.53125 -329.304688 274.417969 -343.699219 314.007812 -343.699219 C 353.597656 -343.699219 385.085938 -329.304688 407.582031 -301.410156 C 430.074219 -273.519531 438.171875 -239.332031 430.074219 -199.742188 Z M 493.054688 -199.742188 C 503.851562 -256.425781 493.054688 -305.011719 460.664062 -345.5 C 428.273438 -385.988281 383.289062 -406.679688 326.605469 -406.679688 C 269.921875 -406.679688 216.835938 -385.988281 168.25 -345.5 C 119.664062 -305.011719 89.972656 -256.425781 79.175781 -199.742188 C 68.378906 -142.160156 79.175781 -93.574219 111.566406 -53.984375 C 144.859375 -13.496094 189.84375 6.296875 246.527344 6.296875 C 303.210938 6.296875 355.394531 -13.496094 403.980469 -53.984375 C 452.566406 -93.574219 482.257812 -142.160156 493.054688 -199.742188 Z M 493.054688 -199.742188 "/></g></g></g><g fill="#eba0ac" fill-opacity="1"><g transform="translate(2792.045409, 1385.231366)"><g><path d="M 354.496094 -67.480469 L 341 0 L 403.980469 0 L 481.359375 -395.882812 L 418.378906 -395.882812 L 385.988281 -230.332031 C 375.191406 -175.449219 356.296875 -132.261719 330.203125 -101.671875 C 304.109375 -71.078125 266.320312 -54.882812 216.835938 -54.882812 C 189.84375 -54.882812 171.851562 -63.882812 163.753906 -81.875 C 155.65625 -99.871094 153.855469 -122.363281 159.253906 -148.457031 L 207.839844 -395.882812 L 144.859375 -395.882812 L 96.273438 -148.457031 C 87.273438 -102.570312 92.671875 -64.78125 111.566406 -35.988281 C 130.460938 -7.199219 162.851562 8.097656 206.941406 8.097656 C 265.421875 8.097656 314.90625 -17.09375 354.496094 -67.480469 Z M 354.496094 -67.480469 "/></g></g></g><g fill="#eba0ac" fill-opacity="1"><g transform="translate(3249.978521, 1385.231366)"><g><path d="M 332.003906 -314.007812 L 348.199219 -395.882812 C 336.5 -401.28125 323.003906 -403.980469 309.507812 -403.980469 C 265.421875 -403.980469 227.632812 -379.6875 197.042969 -330.203125 L 191.644531 -314.007812 L 207.839844 -395.882812 L 144.859375 -395.882812 L 67.480469 0 L 130.460938 0 L 169.152344 -197.941406 C 175.449219 -230.332031 188.945312 -260.023438 208.738281 -286.117188 C 219.535156 -299.613281 231.234375 -311.308594 244.730469 -320.304688 C 258.226562 -329.304688 273.519531 -333.800781 289.714844 -333.800781 C 305.910156 -333.800781 320.304688 -327.503906 332.003906 -314.007812 Z M 332.003906 -314.007812 "/></g></g></g><g fill="#eba0ac" fill-opacity="1"><g transform="translate(3529.776563, 1385.231366)"><g><path d="M 335.601562 -174.550781 L 335.601562 -225.835938 L 34.191406 -225.835938 L 34.191406 -174.550781 Z M 335.601562 -174.550781 "/></g></g></g><g fill="#eba0ac" fill-opacity="1"><g transform="translate(3898.642008, 1385.231366)"><g><path d="M 184.445312 37.789062 L 450.769531 -395.882812 L 382.386719 -395.882812 L 211.4375 -101.671875 L 154.753906 -395.882812 L 86.375 -395.882812 Z M 184.445312 37.789062 "/></g></g></g><g fill="#eba0ac" fill-opacity="1"><g transform="translate(4281.002482, 1385.231366)"><g><path d="M 430.074219 -199.742188 C 422.875 -161.054688 401.28125 -126.863281 367.992188 -98.972656 C 334.703125 -71.078125 297.8125 -56.683594 258.226562 -56.683594 C 218.636719 -56.683594 187.144531 -71.078125 164.652344 -98.972656 C 142.160156 -126.863281 134.960938 -161.054688 142.160156 -199.742188 C 150.257812 -239.332031 170.949219 -273.519531 204.242188 -301.410156 C 237.53125 -329.304688 274.417969 -343.699219 314.007812 -343.699219 C 353.597656 -343.699219 385.085938 -329.304688 407.582031 -301.410156 C 430.074219 -273.519531 438.171875 -239.332031 430.074219 -199.742188 Z M 493.054688 -199.742188 C 503.851562 -256.425781 493.054688 -305.011719 460.664062 -345.5 C 428.273438 -385.988281 383.289062 -406.679688 326.605469 -406.679688 C 269.921875 -406.679688 216.835938 -385.988281 168.25 -345.5 C 119.664062 -305.011719 89.972656 -256.425781 79.175781 -199.742188 C 68.378906 -142.160156 79.175781 -93.574219 111.566406 -53.984375 C 144.859375 -13.496094 189.84375 6.296875 246.527344 6.296875 C 303.210938 6.296875 355.394531 -13.496094 403.980469 -53.984375 C 452.566406 -93.574219 482.257812 -142.160156 493.054688 -199.742188 Z M 493.054688 -199.742188 "/></g></g></g><g fill="#eba0ac" fill-opacity="1"><g transform="translate(4775.822051, 1385.231366)"><g><path d="M 83.675781 -337.402344 L 182.648438 -337.402344 L 116.964844 0 L 179.949219 0 L 245.628906 -337.402344 L 343.699219 -337.402344 L 355.394531 -395.882812 L 257.324219 -395.882812 L 287.015625 -549.738281 L 224.035156 -549.738281 L 194.34375 -395.882812 L 95.371094 -395.882812 Z M 83.675781 -337.402344 "/></g></g></g><g fill="#eba0ac" fill-opacity="1"><g transform="translate(5071.814018, 1385.231366)"><g><path d="M 494.855469 -206.941406 C 505.652344 -261.824219 493.957031 -308.609375 459.765625 -348.199219 C 426.476562 -386.886719 382.386719 -406.679688 326.605469 -406.679688 C 269.921875 -406.679688 216.835938 -385.988281 168.25 -345.5 C 119.664062 -305.011719 89.972656 -256.425781 79.175781 -199.742188 C 68.378906 -142.160156 79.175781 -93.574219 111.566406 -53.984375 C 126.863281 -35.089844 146.65625 -20.695312 169.152344 -9.898438 C 191.644531 0.898438 220.4375 6.296875 255.527344 6.296875 C 290.613281 6.296875 327.503906 -5.398438 365.292969 -26.992188 C 403.082031 -48.585938 434.574219 -78.277344 458.867188 -116.066406 L 386.886719 -116.066406 C 369.792969 -97.171875 349.097656 -82.777344 326.605469 -71.980469 C 304.109375 -61.183594 280.71875 -56.683594 258.226562 -56.683594 C 224.035156 -56.683594 196.144531 -67.480469 172.75 -89.972656 C 150.257812 -111.566406 139.460938 -139.460938 140.359375 -173.648438 L 488.558594 -173.648438 Z M 431.875 -227.632812 L 151.15625 -227.632812 C 158.355469 -244.730469 167.351562 -259.125 179.046875 -273.519531 C 217.738281 -320.304688 262.722656 -343.699219 314.007812 -343.699219 C 347.296875 -343.699219 376.089844 -332.902344 397.683594 -311.308594 C 420.175781 -288.816406 430.972656 -260.921875 431.875 -227.632812 Z M 431.875 -227.632812 "/></g></g></g></svg>