<svg xmlns="http://www.w3.org/2000/svg" xmlns:xlink="http://www.w3.org/1999/xlink" width="7559" zoomAndPan="magnify" viewBox="0 0 5669.25 2267.999971" height="3023" preserveAspectRatio="xMidYMid meet" version="1.0"><defs><g/><clipPath id="b90f0aa9d4"><path d="M 0 263.90625 L 1640.03125 263.90625 L 1640.03125 1903.941406 L 0 1903.941406 Z M 0 263.90625 " clip-rule="nonzero"/></clipPath></defs><g clip-path="url(#b90f0aa9d4)"><path fill="#000000" d="M 820.015625 263.90625 C 367.367188 263.90625 0 631.273438 0 1083.921875 C 0 1536.574219 367.367188 1903.941406 820.015625 1903.941406 C 1272.664062 1903.941406 1640.03125 1536.574219 1640.03125 1083.921875 C 1640.03125 631.273438 1272.664062 263.90625 820.015625 263.90625 Z M 487.089844 942.878906 C 455.929688 941.242188 396.886719 939.601562 364.085938 934.679688 C 337.847656 933.039062 319.804688 915 319.804688 888.757812 C 319.804688 864.160156 332.925781 851.039062 352.605469 847.757812 C 331.285156 846.117188 316.527344 829.71875 319.804688 803.476562 C 323.085938 775.597656 339.488281 767.398438 360.808594 765.757812 C 349.328125 760.835938 342.765625 742.796875 347.6875 724.757812 C 359.167969 685.394531 393.609375 690.316406 393.609375 690.316406 C 385.40625 683.753906 382.128906 673.914062 387.046875 659.15625 C 391.96875 642.753906 400.167969 632.914062 414.929688 629.632812 C 441.167969 623.074219 475.609375 618.152344 557.609375 629.632812 C 600.253906 636.195312 660.933594 647.675781 706.855469 667.355469 C 734.734375 675.554688 777.375 677.195312 828.214844 677.195312 C 839.695312 677.195312 849.535156 703.4375 849.535156 785.4375 C 849.535156 867.4375 839.695312 893.679688 828.214844 893.679688 C 780.65625 893.679688 746.214844 900.238281 734.734375 901.878906 C 669.132812 915 677.332031 929.761719 621.574219 967.480469 C 559.25 1010.121094 564.171875 1011.761719 544.492188 1039.644531 C 526.449219 1065.882812 514.96875 1065.882812 498.570312 1103.605469 C 487.089844 1128.203125 480.53125 1144.605469 462.488281 1141.324219 C 451.007812 1139.683594 434.609375 1120.003906 434.609375 1098.683594 C 434.609375 1057.683594 446.089844 1023.242188 473.96875 992.082031 C 487.089844 970.761719 493.648438 965.839844 487.089844 942.878906 Z M 446.089844 1416.851562 L 1151.304688 711.636719 L 1192.304688 752.636719 L 487.089844 1457.851562 Z M 1320.226562 1364.367188 C 1316.945312 1392.25 1300.546875 1400.449219 1279.226562 1402.089844 C 1290.707031 1407.011719 1297.265625 1425.050781 1292.347656 1443.089844 C 1280.867188 1482.453125 1246.425781 1477.53125 1246.425781 1477.53125 C 1254.625 1484.089844 1257.90625 1493.933594 1252.984375 1508.691406 C 1248.066406 1525.09375 1239.863281 1534.933594 1225.105469 1538.210938 C 1198.863281 1544.773438 1164.421875 1549.691406 1082.421875 1538.210938 C 1039.78125 1531.652344 979.101562 1520.171875 933.179688 1500.492188 C 905.296875 1492.292969 862.65625 1490.652344 811.816406 1490.652344 C 800.335938 1490.652344 790.496094 1464.410156 790.496094 1382.410156 C 790.496094 1300.40625 800.335938 1274.167969 811.816406 1274.167969 C 859.378906 1274.167969 893.816406 1267.605469 905.296875 1265.96875 C 970.898438 1252.847656 962.699219 1238.085938 1018.460938 1200.367188 C 1080.78125 1157.726562 1075.863281 1156.085938 1095.542969 1128.203125 C 1113.582031 1101.964844 1125.0625 1101.964844 1141.464844 1064.242188 C 1152.941406 1039.644531 1159.503906 1023.242188 1177.542969 1026.523438 C 1189.023438 1028.164062 1205.425781 1047.84375 1205.425781 1069.164062 C 1205.425781 1110.164062 1193.945312 1144.605469 1166.0625 1175.765625 C 1152.941406 1197.085938 1148.023438 1202.003906 1152.941406 1223.328125 C 1184.105469 1224.964844 1243.144531 1226.605469 1275.945312 1231.527344 C 1302.1875 1233.167969 1320.226562 1251.207031 1320.226562 1277.449219 C 1320.226562 1302.046875 1307.105469 1315.167969 1287.425781 1318.449219 C 1307.105469 1320.089844 1323.507812 1338.128906 1320.226562 1364.367188 Z M 1320.226562 1364.367188 " fill-opacity="1" fill-rule="nonzero"/></g><g fill="#000000" fill-opacity="1"><g transform="translate(1914.581547, 1385.808921)"><g><path d="M 73.800781 225.003906 L 468.90625 -396.007812 L 398.707031 -396.007812 L 233.105469 -130.503906 L 158.402344 -396.007812 L 86.402344 -396.007812 L 187.203125 -64.800781 L -2.699219 225.003906 Z M 73.800781 225.003906 "/></g></g></g><g fill="#000000" fill-opacity="1"><g transform="translate(2297.060009, 1385.808921)"><g><path d="M 430.207031 -199.804688 C 423.007812 -161.101562 401.40625 -126.902344 368.105469 -99 C 334.804688 -71.101562 297.90625 -56.699219 258.304688 -56.699219 C 218.703125 -56.699219 187.203125 -71.101562 164.703125 -99 C 142.203125 -126.902344 135.003906 -161.101562 142.203125 -199.804688 C 150.300781 -239.402344 171.003906 -273.605469 204.304688 -301.503906 C 237.605469 -329.40625 274.503906 -343.804688 314.105469 -343.804688 C 353.707031 -343.804688 385.207031 -329.40625 407.707031 -301.503906 C 430.207031 -273.605469 438.308594 -239.402344 430.207031 -199.804688 Z M 493.207031 -199.804688 C 504.007812 -256.503906 493.207031 -305.105469 460.808594 -345.605469 C 428.40625 -386.105469 383.40625 -406.808594 326.707031 -406.808594 C 270.003906 -406.808594 216.902344 -386.105469 168.304688 -345.605469 C 119.703125 -305.105469 90 -256.503906 79.203125 -199.804688 C 68.402344 -142.203125 79.203125 -93.601562 111.601562 -54 C 144.902344 -13.5 189.902344 6.300781 246.605469 6.300781 C 303.304688 6.300781 355.507812 -13.5 404.105469 -54 C 452.707031 -93.601562 482.40625 -142.203125 493.207031 -199.804688 Z M 493.207031 -199.804688 "/></g></g></g><g fill="#000000" fill-opacity="1"><g transform="translate(2792.03227, 1385.808921)"><g><path d="M 354.605469 -67.5 L 341.105469 0 L 404.105469 0 L 481.507812 -396.007812 L 418.507812 -396.007812 L 386.105469 -230.402344 C 375.304688 -175.503906 356.40625 -132.300781 330.304688 -101.703125 C 304.203125 -71.101562 266.40625 -54.902344 216.902344 -54.902344 C 189.902344 -54.902344 171.902344 -63.902344 163.800781 -81.902344 C 155.703125 -99.902344 153.902344 -122.402344 159.300781 -148.503906 L 207.902344 -396.007812 L 144.902344 -396.007812 L 96.300781 -148.503906 C 87.300781 -102.601562 92.703125 -64.800781 111.601562 -36 C 130.503906 -7.199219 162.902344 8.101562 207.003906 8.101562 C 265.503906 8.101562 315.003906 -17.101562 354.605469 -67.5 Z M 354.605469 -67.5 "/></g></g></g><g fill="#000000" fill-opacity="1"><g transform="translate(3250.10669, 1385.808921)"><g><path d="M 332.105469 -314.105469 L 348.304688 -396.007812 C 336.605469 -401.40625 323.105469 -404.105469 309.605469 -404.105469 C 265.503906 -404.105469 227.703125 -379.804688 197.101562 -330.304688 L 191.703125 -314.105469 L 207.902344 -396.007812 L 144.902344 -396.007812 L 67.5 0 L 130.503906 0 L 169.203125 -198.003906 C 175.503906 -230.402344 189.003906 -260.105469 208.804688 -286.203125 C 219.605469 -299.703125 231.304688 -311.40625 244.804688 -320.40625 C 258.304688 -329.40625 273.605469 -333.90625 289.804688 -333.90625 C 306.003906 -333.90625 320.40625 -327.605469 332.105469 -314.105469 Z M 332.105469 -314.105469 "/></g></g></g><g fill="#000000" fill-opacity="1"><g transform="translate(3529.991073, 1385.808921)"><g><path d="M 335.707031 -174.601562 L 335.707031 -225.902344 L 34.199219 -225.902344 L 34.199219 -174.601562 Z M 335.707031 -174.601562 "/></g></g></g><g fill="#000000" fill-opacity="1"><g transform="translate(3898.970342, 1385.808921)"><g><path d="M 184.503906 37.800781 L 450.90625 -396.007812 L 382.507812 -396.007812 L 211.503906 -101.703125 L 154.800781 -396.007812 L 86.402344 -396.007812 Z M 184.503906 37.800781 "/></g></g></g><g fill="#000000" fill-opacity="1"><g transform="translate(4281.448804, 1385.808921)"><g><path d="M 430.207031 -199.804688 C 423.007812 -161.101562 401.40625 -126.902344 368.105469 -99 C 334.804688 -71.101562 297.90625 -56.699219 258.304688 -56.699219 C 218.703125 -56.699219 187.203125 -71.101562 164.703125 -99 C 142.203125 -126.902344 135.003906 -161.101562 142.203125 -199.804688 C 150.300781 -239.402344 171.003906 -273.605469 204.304688 -301.503906 C 237.605469 -329.40625 274.503906 -343.804688 314.105469 -343.804688 C 353.707031 -343.804688 385.207031 -329.40625 407.707031 -301.503906 C 430.207031 -273.605469 438.308594 -239.402344 430.207031 -199.804688 Z M 493.207031 -199.804688 C 504.007812 -256.503906 493.207031 -305.105469 460.808594 -345.605469 C 428.40625 -386.105469 383.40625 -406.808594 326.707031 -406.808594 C 270.003906 -406.808594 216.902344 -386.105469 168.304688 -345.605469 C 119.703125 -305.105469 90 -256.503906 79.203125 -199.804688 C 68.402344 -142.203125 79.203125 -93.601562 111.601562 -54 C 144.902344 -13.5 189.902344 6.300781 246.605469 6.300781 C 303.304688 6.300781 355.507812 -13.5 404.105469 -54 C 452.707031 -93.601562 482.40625 -142.203125 493.207031 -199.804688 Z M 493.207031 -199.804688 "/></g></g></g><g fill="#000000" fill-opacity="1"><g transform="translate(4776.421064, 1385.808921)"><g><path d="M 83.703125 -337.503906 L 182.703125 -337.503906 L 117 0 L 180.003906 0 L 245.703125 -337.503906 L 343.804688 -337.503906 L 355.507812 -396.007812 L 257.402344 -396.007812 L 287.105469 -549.910156 L 224.105469 -549.910156 L 194.402344 -396.007812 L 95.402344 -396.007812 Z M 83.703125 -337.503906 "/></g></g></g><g fill="#000000" fill-opacity="1"><g transform="translate(5072.504368, 1385.808921)"><g><path d="M 495.007812 -207.003906 C 505.808594 -261.90625 494.109375 -308.707031 459.90625 -348.304688 C 426.605469 -387.007812 382.507812 -406.808594 326.707031 -406.808594 C 270.003906 -406.808594 216.902344 -386.105469 168.304688 -345.605469 C 119.703125 -305.105469 90 -256.503906 79.203125 -199.804688 C 68.402344 -142.203125 79.203125 -93.601562 111.601562 -54 C 126.902344 -35.101562 146.703125 -20.699219 169.203125 -9.898438 C 191.703125 0.898438 220.503906 6.300781 255.605469 6.300781 C 290.703125 6.300781 327.605469 -5.398438 365.40625 -27 C 403.207031 -48.601562 434.707031 -78.300781 459.007812 -116.101562 L 387.007812 -116.101562 C 369.90625 -97.203125 349.207031 -82.800781 326.707031 -72 C 304.203125 -61.199219 280.804688 -56.699219 258.304688 -56.699219 C 224.105469 -56.699219 196.203125 -67.5 172.804688 -90 C 150.300781 -111.601562 139.503906 -139.503906 140.402344 -173.703125 L 488.707031 -173.703125 Z M 432.007812 -227.703125 L 151.203125 -227.703125 C 158.402344 -244.804688 167.402344 -259.203125 179.101562 -273.605469 C 217.804688 -320.40625 262.804688 -343.804688 314.105469 -343.804688 C 347.40625 -343.804688 376.207031 -333.003906 397.804688 -311.40625 C 420.308594 -288.90625 431.105469 -261.003906 432.007812 -227.703125 Z M 432.007812 -227.703125 "/></g></g></g></svg>