<svg xmlns="http://www.w3.org/2000/svg" xmlns:xlink="http://www.w3.org/1999/xlink" width="7559" zoomAndPan="magnify" viewBox="0 0 5669.25 2268.00001" height="3023" preserveAspectRatio="xMidYMid meet" version="1.0"><defs><g/><clipPath id="d0e5698bbf"><path d="M 227.546875 346.511719 L 1801.101562 346.511719 L 1801.101562 1920.070312 L 227.546875 1920.070312 Z M 227.546875 346.511719 " clip-rule="nonzero"/></clipPath></defs><g clip-path="url(#d0e5698bbf)"><path fill="#000000" d="M 1014.324219 346.511719 C 580.023438 346.511719 227.546875 698.988281 227.546875 1133.292969 C 227.546875 1567.59375 580.023438 1920.070312 1014.324219 1920.070312 C 1448.625 1920.070312 1801.101562 1567.59375 1801.101562 1133.292969 C 1801.101562 698.988281 1448.625 346.511719 1014.324219 346.511719 Z M 694.890625 997.964844 C 664.996094 996.390625 608.347656 994.820312 576.875 990.097656 C 551.699219 988.523438 534.390625 971.214844 534.390625 946.039062 C 534.390625 922.433594 546.976562 909.847656 565.859375 906.699219 C 545.40625 905.125 531.242188 889.390625 534.390625 864.214844 C 537.535156 837.460938 553.273438 829.59375 573.726562 828.023438 C 562.714844 823.300781 556.417969 805.992188 561.140625 788.683594 C 572.15625 750.917969 605.199219 755.636719 605.199219 755.636719 C 597.332031 749.34375 594.183594 739.902344 598.90625 725.742188 C 603.625 710.003906 611.492188 700.5625 625.65625 697.417969 C 650.832031 691.121094 683.878906 686.402344 762.554688 697.417969 C 803.46875 703.710938 861.6875 714.726562 905.75 733.609375 C 932.5 741.476562 973.410156 743.050781 1022.191406 743.050781 C 1033.207031 743.050781 1042.648438 768.226562 1042.648438 846.902344 C 1042.648438 925.582031 1033.207031 950.757812 1022.191406 950.757812 C 976.558594 950.757812 943.515625 957.054688 932.5 958.625 C 869.558594 971.214844 877.425781 985.378906 823.925781 1021.570312 C 764.128906 1062.480469 768.847656 1064.054688 749.964844 1090.804688 C 732.65625 1115.980469 721.644531 1115.980469 705.90625 1152.175781 C 694.890625 1175.777344 688.597656 1191.511719 671.289062 1188.367188 C 660.273438 1186.792969 644.539062 1167.910156 644.539062 1147.453125 C 644.539062 1108.113281 655.554688 1075.070312 682.304688 1045.171875 C 694.890625 1024.714844 701.1875 1019.996094 694.890625 997.964844 Z M 655.554688 1452.722656 L 1332.183594 776.09375 L 1371.519531 815.433594 L 694.890625 1492.0625 Z M 1494.257812 1402.371094 C 1491.113281 1429.121094 1475.375 1436.988281 1454.921875 1438.5625 C 1465.933594 1443.28125 1472.230469 1460.589844 1467.507812 1477.898438 C 1456.492188 1515.664062 1423.449219 1510.945312 1423.449219 1510.945312 C 1431.316406 1517.238281 1434.464844 1526.679688 1429.742188 1540.84375 C 1425.023438 1556.578125 1417.15625 1566.019531 1402.992188 1569.167969 C 1377.816406 1575.460938 1344.769531 1580.179688 1266.09375 1569.167969 C 1225.179688 1562.871094 1166.960938 1551.855469 1122.898438 1532.976562 C 1096.148438 1525.105469 1055.238281 1523.535156 1006.457031 1523.535156 C 995.441406 1523.535156 986 1498.355469 986 1419.679688 C 986 1341 995.441406 1315.824219 1006.457031 1315.824219 C 1052.089844 1315.824219 1085.132812 1309.53125 1096.148438 1307.957031 C 1159.089844 1295.367188 1151.222656 1281.207031 1204.726562 1245.015625 C 1264.519531 1204.101562 1259.800781 1202.527344 1278.683594 1175.777344 C 1295.992188 1150.601562 1307.007812 1150.601562 1322.742188 1114.410156 C 1333.757812 1090.804688 1340.050781 1075.070312 1357.359375 1078.21875 C 1368.375 1079.789062 1384.109375 1098.671875 1384.109375 1119.128906 C 1384.109375 1158.46875 1373.09375 1191.511719 1346.34375 1221.410156 C 1333.757812 1241.867188 1329.035156 1246.585938 1333.757812 1267.042969 C 1363.652344 1268.617188 1420.300781 1270.191406 1451.773438 1274.910156 C 1476.949219 1276.484375 1494.257812 1293.792969 1494.257812 1318.972656 C 1494.257812 1342.574219 1481.671875 1355.164062 1462.789062 1358.308594 C 1481.671875 1359.882812 1497.40625 1377.191406 1494.257812 1402.371094 Z M 1494.257812 1402.371094 " fill-opacity="1" fill-rule="nonzero"/></g><g fill="#000000" fill-opacity="1"><g transform="translate(2054.313352, 1411.487284)"><g><path d="M 67.964844 207.207031 L 431.816406 -364.683594 L 367.167969 -364.683594 L 214.664062 -120.179688 L 145.871094 -364.683594 L 79.566406 -364.683594 L 172.394531 -59.675781 L -2.488281 207.207031 Z M 67.964844 207.207031 "/></g></g></g><g fill="#000000" fill-opacity="1"><g transform="translate(2406.537612, 1411.487284)"><g><path d="M 396.175781 -184 C 389.546875 -148.359375 369.65625 -116.863281 338.988281 -91.171875 C 308.324219 -65.476562 274.339844 -52.214844 237.871094 -52.214844 C 201.402344 -52.214844 172.394531 -65.476562 151.675781 -91.171875 C 130.953125 -116.863281 124.324219 -148.359375 130.953125 -184 C 138.414062 -220.46875 157.476562 -251.960938 188.144531 -277.65625 C 218.808594 -303.347656 252.792969 -316.609375 289.257812 -316.609375 C 325.726562 -316.609375 354.738281 -303.347656 375.457031 -277.65625 C 396.175781 -251.960938 403.636719 -220.46875 396.175781 -184 Z M 454.195312 -184 C 464.140625 -236.214844 454.195312 -280.972656 424.359375 -318.269531 C 394.519531 -355.566406 353.078125 -374.628906 300.863281 -374.628906 C 248.648438 -374.628906 199.746094 -355.566406 154.988281 -318.269531 C 110.234375 -280.972656 82.882812 -236.214844 72.9375 -184 C 62.992188 -130.953125 72.9375 -86.199219 102.773438 -49.730469 C 133.441406 -12.433594 174.882812 5.800781 227.097656 5.800781 C 279.3125 5.800781 327.386719 -12.433594 372.140625 -49.730469 C 416.898438 -86.199219 444.25 -130.953125 454.195312 -184 Z M 454.195312 -184 "/></g></g></g><g fill="#000000" fill-opacity="1"><g transform="translate(2862.357364, 1411.487284)"><g><path d="M 326.554688 -62.160156 L 314.125 0 L 372.140625 0 L 443.421875 -364.683594 L 385.402344 -364.683594 L 355.566406 -212.179688 C 345.621094 -161.621094 328.214844 -121.835938 304.179688 -93.65625 C 280.140625 -65.476562 245.332031 -50.558594 199.746094 -50.558594 C 174.882812 -50.558594 158.304688 -58.847656 150.847656 -75.421875 C 143.386719 -92 141.730469 -112.71875 146.703125 -136.757812 L 191.457031 -364.683594 L 133.441406 -364.683594 L 88.683594 -136.757812 C 80.394531 -94.484375 85.367188 -59.675781 102.773438 -33.152344 C 120.179688 -6.628906 150.015625 7.460938 190.628906 7.460938 C 244.503906 7.460938 290.089844 -15.746094 326.554688 -62.160156 Z M 326.554688 -62.160156 "/></g></g></g><g fill="#000000" fill-opacity="1"><g transform="translate(3284.197912, 1411.487284)"><g><path d="M 305.835938 -289.257812 L 320.753906 -364.683594 C 309.980469 -369.65625 297.546875 -372.140625 285.117188 -372.140625 C 244.503906 -372.140625 209.691406 -349.761719 181.511719 -304.179688 L 176.539062 -289.257812 L 191.457031 -364.683594 L 133.441406 -364.683594 L 62.160156 0 L 120.179688 0 L 155.820312 -182.339844 C 161.621094 -212.179688 174.054688 -239.53125 192.285156 -263.566406 C 202.234375 -276 213.007812 -286.773438 225.441406 -295.0625 C 237.871094 -303.347656 251.960938 -307.492188 266.882812 -307.492188 C 281.800781 -307.492188 295.0625 -301.691406 305.835938 -289.257812 Z M 305.835938 -289.257812 "/></g></g></g><g fill="#000000" fill-opacity="1"><g transform="translate(3541.943325, 1411.487284)"><g><path d="M 309.152344 -160.792969 L 309.152344 -208.035156 L 31.496094 -208.035156 L 31.496094 -160.792969 Z M 309.152344 -160.792969 "/></g></g></g><g fill="#000000" fill-opacity="1"><g transform="translate(3881.736184, 1411.487284)"><g><path d="M 169.910156 34.8125 L 415.242188 -364.683594 L 352.25 -364.683594 L 194.773438 -93.65625 L 142.558594 -364.683594 L 79.566406 -364.683594 Z M 169.910156 34.8125 "/></g></g></g><g fill="#000000" fill-opacity="1"><g transform="translate(4233.960444, 1411.487284)"><g><path d="M 396.175781 -184 C 389.546875 -148.359375 369.65625 -116.863281 338.988281 -91.171875 C 308.324219 -65.476562 274.339844 -52.214844 237.871094 -52.214844 C 201.402344 -52.214844 172.394531 -65.476562 151.675781 -91.171875 C 130.953125 -116.863281 124.324219 -148.359375 130.953125 -184 C 138.414062 -220.46875 157.476562 -251.960938 188.144531 -277.65625 C 218.808594 -303.347656 252.792969 -316.609375 289.257812 -316.609375 C 325.726562 -316.609375 354.738281 -303.347656 375.457031 -277.65625 C 396.175781 -251.960938 403.636719 -220.46875 396.175781 -184 Z M 454.195312 -184 C 464.140625 -236.214844 454.195312 -280.972656 424.359375 -318.269531 C 394.519531 -355.566406 353.078125 -374.628906 300.863281 -374.628906 C 248.648438 -374.628906 199.746094 -355.566406 154.988281 -318.269531 C 110.234375 -280.972656 82.882812 -236.214844 72.9375 -184 C 62.992188 -130.953125 72.9375 -86.199219 102.773438 -49.730469 C 133.441406 -12.433594 174.882812 5.800781 227.097656 5.800781 C 279.3125 5.800781 327.386719 -12.433594 372.140625 -49.730469 C 416.898438 -86.199219 444.25 -130.953125 454.195312 -184 Z M 454.195312 -184 "/></g></g></g><g fill="#000000" fill-opacity="1"><g transform="translate(4689.780197, 1411.487284)"><g><path d="M 77.082031 -310.808594 L 168.25 -310.808594 L 107.746094 0 L 165.765625 0 L 226.269531 -310.808594 L 316.609375 -310.808594 L 327.386719 -364.683594 L 237.042969 -364.683594 L 264.394531 -506.410156 L 206.378906 -506.410156 L 179.027344 -364.683594 L 87.855469 -364.683594 Z M 77.082031 -310.808594 "/></g></g></g><g fill="#000000" fill-opacity="1"><g transform="translate(4962.443191, 1411.487284)"><g><path d="M 455.851562 -190.628906 C 465.796875 -241.1875 455.023438 -284.285156 423.527344 -320.753906 C 392.863281 -356.394531 352.25 -374.628906 300.863281 -374.628906 C 248.648438 -374.628906 199.746094 -355.566406 154.988281 -318.269531 C 110.234375 -280.972656 82.882812 -236.214844 72.9375 -184 C 62.992188 -130.953125 72.9375 -86.199219 102.773438 -49.730469 C 116.863281 -32.324219 135.097656 -19.0625 155.820312 -9.117188 C 176.539062 0.828125 203.0625 5.800781 235.386719 5.800781 C 267.710938 5.800781 301.691406 -4.972656 336.503906 -24.863281 C 371.3125 -44.757812 400.320312 -72.109375 422.699219 -106.917969 L 356.394531 -106.917969 C 340.644531 -89.511719 321.582031 -76.25 300.863281 -66.304688 C 280.140625 -56.359375 258.59375 -52.214844 237.871094 -52.214844 C 206.378906 -52.214844 180.683594 -62.160156 159.132812 -82.882812 C 138.414062 -102.773438 128.46875 -128.46875 129.296875 -159.964844 L 450.050781 -159.964844 Z M 397.835938 -209.691406 L 139.242188 -209.691406 C 145.871094 -225.441406 154.160156 -238.699219 164.9375 -251.960938 C 200.574219 -295.0625 242.015625 -316.609375 289.257812 -316.609375 C 319.925781 -316.609375 346.449219 -306.664062 366.339844 -286.773438 C 387.058594 -266.050781 397.007812 -240.359375 397.835938 -209.691406 Z M 397.835938 -209.691406 "/></g></g></g></svg>