<svg xmlns="http://www.w3.org/2000/svg" xmlns:xlink="http://www.w3.org/1999/xlink" width="400" zoomAndPan="magnify" viewBox="0 0 300 299.999988" height="400" preserveAspectRatio="xMidYMid meet" version="1.0"><defs><clipPath id="1cbf129e7d"><path d="M 2 7.453125 L 288 7.453125 L 288 292.453125 L 2 292.453125 Z M 2 7.453125 " clip-rule="nonzero"/></clipPath><clipPath id="c38b6d8e65"><path d="M 113.34375 78 L 150 78 L 150 100 L 113.34375 100 Z M 113.34375 78 " clip-rule="nonzero"/></clipPath><clipPath id="e06ee121fe"><path d="M 214 78 L 250.59375 78 L 250.59375 100 L 214 100 Z M 214 78 " clip-rule="nonzero"/></clipPath><clipPath id="0de8cd79a4"><path d="M 176 151 L 192 151 L 192 155.886719 L 176 155.886719 Z M 176 151 " clip-rule="nonzero"/></clipPath></defs><path fill="#7f849c" d="M 123.414062 51.089844 C 139.519531 34.984375 160.960938 26.113281 183.796875 26.113281 C 206.632812 26.113281 228.074219 34.984375 244.183594 51.089844 C 277.476562 84.386719 277.476562 138.566406 244.183594 171.867188 C 228.082031 187.972656 206.636719 196.84375 183.800781 196.84375 C 160.964844 196.84375 139.519531 187.976562 123.414062 171.867188 C 107.308594 155.757812 98.4375 134.316406 98.4375 111.480469 C 98.4375 88.644531 107.3125 67.195312 123.414062 51.089844 Z M 128.191406 167.089844 C 143.023438 181.917969 162.769531 190.085938 183.800781 190.085938 C 204.835938 190.085938 224.578125 181.921875 239.40625 167.089844 C 270.066406 136.425781 270.066406 86.53125 239.40625 55.867188 C 224.574219 41.039062 204.828125 32.871094 183.796875 32.871094 C 162.765625 32.871094 143.023438 41.039062 128.191406 55.867188 C 97.523438 86.53125 97.523438 136.421875 128.191406 167.089844 Z M 128.191406 167.089844 " fill-opacity="1" fill-rule="nonzero"/><g clip-path="url(#1cbf129e7d)"><path fill="#7f849c" d="M 9.21875 254.933594 L 66.0625 198.085938 L 77.824219 186.324219 C 79.09375 185.058594 81.335938 185.058594 82.601562 186.324219 L 84.390625 188.113281 C 84.558594 187.722656 84.789062 187.351562 85.113281 187.03125 L 99.585938 172.550781 C 86.757812 154.921875 79.816406 133.746094 79.816406 111.476562 C 79.816406 83.660156 90.617188 57.53125 110.238281 37.917969 C 129.859375 18.300781 155.980469 7.5 183.792969 7.5 C 211.609375 7.5 237.738281 18.304688 257.355469 37.921875 C 297.914062 78.480469 297.914062 144.480469 257.355469 185.042969 C 237.734375 204.660156 211.609375 215.460938 183.796875 215.460938 C 161.527344 215.460938 140.355469 208.519531 122.722656 195.691406 L 108.246094 210.175781 C 107.925781 210.496094 107.558594 210.730469 107.164062 210.894531 L 108.9375 212.671875 C 110.261719 213.992188 110.261719 216.128906 108.9375 217.449219 L 96.726562 229.667969 L 40.339844 286.058594 C 36.1875 290.21875 30.65625 292.507812 24.777344 292.507812 C 18.902344 292.507812 13.371094 290.21875 9.21875 286.058594 C 0.636719 277.46875 0.636719 263.507812 9.21875 254.933594 Z M 252.585938 180.261719 C 290.511719 142.332031 290.511719 80.621094 252.585938 42.695312 C 234.242188 24.351562 209.8125 14.25 183.800781 14.25 C 157.789062 14.25 133.363281 24.347656 115.023438 42.6875 C 96.675781 61.027344 86.578125 85.457031 86.578125 111.46875 C 86.578125 137.484375 96.675781 161.914062 115.023438 180.25 C 133.363281 198.59375 157.789062 208.691406 183.804688 208.691406 C 209.808594 208.699219 234.242188 198.601562 252.585938 180.261719 Z M 103.472656 205.394531 L 117.355469 191.507812 C 114.902344 189.464844 112.523438 187.316406 110.242188 185.035156 C 107.964844 182.75 105.808594 180.371094 103.769531 177.921875 L 89.890625 191.808594 C 89.570312 192.128906 89.203125 192.363281 88.808594 192.527344 L 102.757812 206.476562 C 102.917969 206.085938 103.152344 205.714844 103.472656 205.394531 Z M 80.214844 193.488281 L 73.15625 200.546875 L 94.410156 222.425781 L 101.777344 215.054688 Z M 13.992188 281.28125 C 16.878906 284.160156 20.707031 285.75 24.777344 285.75 C 28.851562 285.75 32.683594 284.160156 35.566406 281.28125 L 89.632812 227.199219 L 68.378906 205.320312 L 13.988281 259.710938 C 8.046875 265.652344 8.046875 275.328125 13.992188 281.28125 Z M 13.992188 281.28125 " fill-opacity="1" fill-rule="nonzero"/></g><g clip-path="url(#c38b6d8e65)"><path fill="#7f849c" d="M 149.46875 85.652344 C 148.367188 87.824219 144.710938 93.582031 135.707031 96.925781 C 130.441406 98.882812 122.75 101.082031 114.964844 95.898438 C 113.351562 94.824219 113.859375 94.011719 115.726562 94.464844 C 120.207031 95.554688 125.191406 95.6875 132.492188 92.738281 C 142.238281 88.800781 145.539062 80.0625 146.410156 78.589844 C 147.28125 77.121094 150.578125 83.488281 149.46875 85.652344 " fill-opacity="1" fill-rule="nonzero"/></g><g clip-path="url(#e06ee121fe)"><path fill="#7f849c" d="M 214.539062 85.652344 C 215.644531 87.824219 219.296875 93.582031 228.300781 96.925781 C 233.566406 98.882812 241.257812 101.082031 249.042969 95.898438 C 250.660156 94.824219 250.148438 94.011719 248.28125 94.464844 C 243.800781 95.554688 238.820312 95.6875 231.515625 92.738281 C 221.773438 88.800781 218.46875 80.0625 217.597656 78.589844 C 216.730469 77.121094 213.429688 83.488281 214.539062 85.652344 " fill-opacity="1" fill-rule="nonzero"/></g><path fill="#7f849c" d="M 164.953125 153.996094 C 164.953125 153.996094 165.03125 153.839844 165.175781 153.550781 C 165.328125 153.261719 165.53125 152.839844 165.851562 152.332031 C 166.179688 151.828125 166.589844 151.183594 167.125 150.53125 C 167.648438 149.859375 168.300781 149.148438 169.070312 148.417969 C 169.84375 147.699219 170.734375 146.953125 171.765625 146.277344 C 172.78125 145.582031 173.941406 144.96875 175.183594 144.421875 C 176.4375 143.882812 177.789062 143.457031 179.195312 143.148438 C 180.609375 142.863281 182.070312 142.699219 183.539062 142.675781 C 185.007812 142.675781 186.472656 142.816406 187.890625 143.082031 C 189.304688 143.355469 190.660156 143.78125 191.921875 144.296875 C 193.1875 144.804688 194.335938 145.449219 195.382812 146.109375 C 196.40625 146.808594 197.328125 147.519531 198.09375 148.265625 C 198.871094 149 199.507812 149.738281 200.03125 150.417969 C 200.542969 151.109375 200.949219 151.726562 201.238281 152.269531 C 201.542969 152.792969 201.730469 153.238281 201.859375 153.535156 C 201.984375 153.835938 202.050781 153.996094 202.050781 153.996094 C 202.050781 153.996094 201.902344 153.90625 201.625 153.734375 C 201.351562 153.5625 200.96875 153.300781 200.464844 153 C 199.472656 152.386719 198.0625 151.566406 196.351562 150.792969 C 196.132812 150.699219 195.917969 150.59375 195.699219 150.496094 C 195.476562 150.402344 195.246094 150.3125 195.015625 150.21875 C 194.558594 150.019531 194.066406 149.855469 193.578125 149.671875 C 192.585938 149.339844 191.542969 149.011719 190.449219 148.757812 C 189.355469 148.519531 188.230469 148.300781 187.074219 148.167969 C 185.921875 148.042969 184.75 147.972656 183.578125 147.976562 C 182.40625 147.992188 181.234375 148.074219 180.082031 148.214844 C 178.933594 148.375 177.808594 148.59375 176.714844 148.851562 C 175.632812 149.144531 174.570312 149.4375 173.585938 149.8125 C 173.339844 149.902344 173.085938 149.980469 172.847656 150.078125 C 172.609375 150.175781 172.378906 150.277344 172.140625 150.367188 C 171.664062 150.535156 171.230469 150.761719 170.792969 150.945312 C 170.347656 151.117188 169.957031 151.347656 169.554688 151.527344 C 169.144531 151.703125 168.789062 151.917969 168.433594 152.097656 C 167.710938 152.449219 167.132812 152.804688 166.605469 153.074219 C 166.085938 153.363281 165.683594 153.613281 165.394531 153.765625 C 165.109375 153.914062 164.953125 153.996094 164.953125 153.996094 " fill-opacity="1" fill-rule="nonzero"/><path fill="#7f849c" d="M 155.226562 115.636719 C 155.226562 125.703125 147.066406 133.863281 137 133.863281 C 126.929688 133.863281 118.769531 125.703125 118.769531 115.636719 C 118.769531 105.570312 126.929688 97.40625 137 97.40625 C 147.066406 97.40625 155.226562 105.570312 155.226562 115.636719 " fill-opacity="1" fill-rule="nonzero"/><path fill="#ffffff" d="M 152.253906 111.070312 C 152.253906 114.378906 149.574219 117.058594 146.269531 117.058594 C 142.964844 117.058594 140.28125 114.378906 140.28125 111.070312 C 140.28125 107.761719 142.964844 105.082031 146.269531 105.082031 C 149.574219 105.082031 152.253906 107.761719 152.253906 111.070312 " fill-opacity="1" fill-rule="nonzero"/><path fill="#ffffff" d="M 143.273438 118.628906 C 143.273438 120.285156 141.933594 121.625 140.28125 121.625 C 138.628906 121.625 137.289062 120.285156 137.289062 118.628906 C 137.289062 116.976562 138.628906 115.636719 140.28125 115.636719 C 141.933594 115.636719 143.273438 116.976562 143.273438 118.628906 " fill-opacity="1" fill-rule="nonzero"/><path fill="#7f849c" d="M 211.9375 115.636719 C 211.9375 125.703125 220.101562 133.863281 230.164062 133.863281 C 240.234375 133.863281 248.394531 125.703125 248.394531 115.636719 C 248.394531 105.570312 240.234375 97.40625 230.164062 97.40625 C 220.101562 97.40625 211.9375 105.570312 211.9375 115.636719 " fill-opacity="1" fill-rule="nonzero"/><path fill="#ffffff" d="M 214.90625 111.070312 C 214.90625 114.378906 217.589844 117.058594 220.894531 117.058594 C 224.203125 117.058594 226.882812 114.378906 226.882812 111.070312 C 226.882812 107.761719 224.203125 105.082031 220.894531 105.082031 C 217.589844 105.082031 214.90625 107.761719 214.90625 111.070312 " fill-opacity="1" fill-rule="nonzero"/><path fill="#ffffff" d="M 223.886719 118.628906 C 223.886719 120.285156 225.230469 121.625 226.882812 121.625 C 228.535156 121.625 229.878906 120.285156 229.878906 118.628906 C 229.878906 116.976562 228.535156 115.636719 226.882812 115.636719 C 225.230469 115.636719 223.886719 116.976562 223.886719 118.628906 " fill-opacity="1" fill-rule="nonzero"/><g clip-path="url(#0de8cd79a4)"><path fill="#7f849c" d="M 191.933594 154.800781 C 191.933594 156.082031 188.492188 154.800781 184.246094 154.800781 C 180.003906 154.800781 176.5625 156.082031 176.5625 154.800781 C 176.5625 153.523438 180.003906 151.160156 184.246094 151.160156 C 188.492188 151.160156 191.933594 153.523438 191.933594 154.800781 " fill-opacity="1" fill-rule="nonzero"/></g></svg>